<svg xmlns="http://www.w3.org/2000/svg" xmlns:xlink="http://www.w3.org/1999/xlink" viewBox="0 0 3910.5 2607"><defs><style>.cls-1,.cls-13{fill:none;}.cls-2{clip-path:url(#clip-path);}.cls-3{opacity:0.65;}.cls-4{font-size:65px;font-family:AcmeGothic-Semibold, Acme Gothic;font-weight:600;}.cls-12,.cls-14,.cls-4{fill:#fff;}.cls-5{letter-spacing:0.04em;}.cls-6{letter-spacing:-0.02em;}.cls-7{letter-spacing:-0.07em;}.cls-8{letter-spacing:-0.02em;}.cls-9{letter-spacing:-0.02em;}.cls-10{letter-spacing:0.02em;}.cls-11{letter-spacing:-0.04em;}.cls-12{font-size:30px;font-family:Industry-Book, Industry;}.cls-13{stroke:#fff;stroke-miterlimit:10;stroke-width:20px;}.cls-14{font-size:125.83px;font-family:ADAM.CGPRO, "ADAM.CG PRO";}.cls-15{letter-spacing:-0.05em;}.cls-16{letter-spacing:0em;}.cls-17{letter-spacing:-0.06em;}.cls-18{letter-spacing:-0.01em;}.cls-19{letter-spacing:-0.01em;}.cls-20{letter-spacing:0em;}.cls-21{letter-spacing:-0.01em;}.cls-22{letter-spacing:-0.01em;}.cls-23{letter-spacing:-0.01em;}.cls-24{letter-spacing:-0.01em;}.cls-25{letter-spacing:-0.01em;}.cls-26{letter-spacing:0em;}.cls-27{letter-spacing:-0.01em;}</style><clipPath id="clip-path" transform="translate(35 62)"><rect class="cls-1" width="3840" height="2160"/></clipPath></defs><title>WebsitePH</title><g id="Layer_1" data-name="Layer 1"><g class="cls-2"><image width="5760" height="3840" transform="scale(0.68)" xlink:href="Wallstreetmedia_Website/assets/LandingImg.jpg"/></g><rect class="cls-3" x="35" y="62" width="3840" height="2160"/></g><g id="Layer_2" data-name="Layer 2"><text class="cls-4" transform="translate(1625.52 385.2)"><tspan class="cls-5">C</tspan><tspan x="37.5" y="0">A</tspan><tspan class="cls-6" x="76.18" y="0">P</tspan><tspan x="114.14" y="0">I</tspan><tspan class="cls-7" x="132.6" y="0">T</tspan><tspan x="163.15" y="0">AL </tspan><tspan class="cls-8" x="249.73" y="0">S</tspan><tspan x="283.13" y="0">TR</tspan><tspan class="cls-9" x="358.47" y="0">E</tspan><tspan class="cls-10" x="392.4" y="0">E</tspan><tspan x="428.93" y="0">T </tspan><tspan class="cls-11" x="478.91" y="0">M</tspan><tspan x="527.21" y="0">E</tspan><tspan class="cls-9" x="562.44" y="0">D</tspan><tspan x="601.83" y="0">IA</tspan></text><text class="cls-12" transform="translate(1855.51 451.6)">COMING SOON</text><rect class="cls-13" x="1294" y="942" width="1323" height="303"/><text class="cls-14" transform="translate(1364.3 1134.58)">Made in To<tspan class="cls-15" x="735.59" y="0">r</tspan><tspan class="cls-16" x="810.33" y="0">on</tspan><tspan class="cls-17" x="1010.02" y="0">t</tspan><tspan class="cls-16" x="1075.58" y="0">o</tspan></text><text class="cls-12" transform="translate(1495.17 1839.57)"><tspan class="cls-18">st</tspan><tspan class="cls-19" x="25.29" y="0">a</tspan><tspan x="41.55" y="0">y </tspan><tspan class="cls-20" x="63.87" y="0">t</tspan><tspan x="74.1" y="0">uned and join the commun</tspan><tspan class="cls-21" x="429.95" y="0">i</tspan><tspan class="cls-19" x="436.67" y="0">t</tspan><tspan x="446.84" y="0">y </tspan><tspan class="cls-22" x="469.16" y="0">f</tspan><tspan x="479.87" y="0">or people passion</tspan><tspan class="cls-23" x="717.89" y="0">a</tspan><tspan class="cls-24" x="734.09" y="0">t</tspan><tspan x="744.08" y="0">e about i</tspan><tspan class="cls-25" x="859.25" y="0">n</tspan><tspan class="cls-26" x="875.96" y="0">v</tspan><tspan x="890.75" y="0">e</tspan><tspan class="cls-27" x="907.01" y="0">s</tspan><tspan x="922.19" y="0">ting</tspan></text></g></svg>